<?xml version="1.0" standalone="no"?><!DOCTYPE svg PUBLIC "-//W3C//DTD SVG 1.1//EN" "http://www.w3.org/Graphics/SVG/1.1/DTD/svg11.dtd"><svg t="1581511781097" class="icon" viewBox="0 0 1024 1024" version="1.1" xmlns="http://www.w3.org/2000/svg" p-id="5128" xmlns:xlink="http://www.w3.org/1999/xlink" width="200" height="200"><defs><style type="text/css"></style></defs><path d="M324.962932 354.677291h382.233498a31.87251 31.87251 0 0 0 0-63.74502H324.962932a31.87251 31.87251 0 0 0 0 63.74502z m127.410486-127.49004h159.264638a31.87251 31.87251 0 0 0 0-63.74502h-159.264638a31.87251 31.87251 0 0 0 0 63.74502z m-127.410486 254.98008h382.233498a31.87251 31.87251 0 0 0 0-63.74502H324.962932a31.87251 31.87251 0 0 0 0 63.74502z m159.264638 254.980079a159.264637 159.264637 0 1 0 159.264637-159.362549 159.501259 159.501259 0 0 0-159.264637 159.362549z m254.823012 0a95.560414 95.560414 0 1 1-95.558375-95.61753 95.693004 95.693004 0 0 1 95.558375 95.61753z m-414.08765 63.74502h63.704223a31.87251 31.87251 0 0 0 0-63.74502h-63.704223a31.87251 31.87251 0 0 0 0 63.74502zM611.638056 769.01992h63.706263v-63.74502h-63.706263V769.01992zM866.463108 4.079681H165.698295A63.810295 63.810295 0 0 0 101.992032 67.824701v892.430279A63.810295 63.810295 0 0 0 165.698295 1024H866.463108A63.802135 63.802135 0 0 0 930.167331 960.25498V67.824701A63.804175 63.804175 0 0 0 866.463108 4.079681z m0 956.175299H165.698295V67.824701H866.463108v892.430279z" p-id="5129"></path></svg>