<svg t="1640356199309" class="icon" viewBox="0 0 1024 1024" version="1.1" xmlns="http://www.w3.org/2000/svg" p-id="2845" width="200" height="200"><path d="M704.02462 656c-26.5 0-48 21.48-48 48 0 26.5 21.5 48 48 48s48-21.5 48-48c0-26.52-21.5-48-48-48z m-16-400c0-26.52-21.5-48-48-48s-48 21.48-48 48c0 26.5 21.5 48 48 48s48-21.5 48-48z m-320 128c0-26.52-21.5-48-48-48s-48 21.48-48 48c0 26.5 21.5 48 48 48s48-21.5 48-48z m16 272c-26.5 0-48 21.48-48 48 0 26.5 21.5 48 48 48s48-21.5 48-48c0-26.52-21.5-48-48-48z m192-192c-26.5 0-48 21.48-48 48 0 26.5 21.5 48 48 48s48-21.5 48-48c0-26.52-21.5-48-48-48z m444.74 45.58l-24.16-152.52a264.986 264.986 0 0 0-74.32-145.9l-109.52-109.5c-39.46-39.44-90.36-65.4-145.42-74.1l-153.4-24.3C500.24462 1.08 486.46462 0 472.70462 0c-41.44 0-82.5 9.76-119.78 28.76l-138.24 70.42a264.5 264.5 0 0 0-115.58 115.6l-70.2 137.74A265.204 265.204 0 0 0 3.26462 514.4l24.16 152.54a264.986 264.986 0 0 0 74.32 145.9l109.52 109.5a264.174 264.174 0 0 0 145.42 74.1l153.4 24.28c13.72 2.18 27.5 3.24 41.26 3.24 41.44 0 82.5-9.76 119.76-28.76l138.24-70.42a264.604 264.604 0 0 0 115.58-115.6l70.2-137.74a265.12 265.12 0 0 0 25.64-161.86z m-82.66 132.82l-70.2 137.76c-19.36 38-49.66 68.3-87.6 87.64l-138.24 70.42c-27.96 14.26-59.34 21.78-90.72 21.78-10.42 0-20.94-0.82-31.26-2.46l-153.38-24.28c-41.98-6.66-80.08-26.08-110.18-56.16L147.02462 767.58c-30.18-30.18-49.68-68.44-56.36-110.66L66.50462 504.4c-6.7-42.24 0.04-84.72 19.44-122.8l70.2-137.76c19.36-38 49.66-68.3 87.6-87.64l138.24-70.42C409.96462 71.54 441.32462 64 472.70462 64c10.42 0 20.94 0.82 31.24 2.46l153.4 24.3c41.98 6.64 80.08 26.06 110.16 56.16l109.52 109.5c30.18 30.18 49.68 68.44 56.36 110.66l24.16 152.52c6.7 42.24-0.04 84.72-19.44 122.8z" p-id="2846"></path></svg>