<svg t="1640356090389" class="icon" viewBox="0 0 1024 1024" version="1.1" xmlns="http://www.w3.org/2000/svg" p-id="4542" width="200" height="200"><path d="M504.771134 451.921616c-9.198797 2.672858-14.5098 12.288204-11.854298 21.504358 0.468618 1.614129 46.809727 166.463511 34.052904 532.610338a17.304152 17.304152 0 0 0 16.731397 17.946332l0.624824 0.017356a17.35622 17.35622 0 0 0 17.321508-16.748753c12.965097-371.666106-33.410724-536.636981-35.371978-543.475332a17.390933 17.390933 0 0 0-21.504357-11.854299zM941.193298 286.013505A467.784855 467.784855 0 0 0 509.61352 0.000347c-62.256763 0-122.968822 12.166711-180.435269 36.153007a560.571209 560.571209 0 0 0-89.401891 46.931221 17.373577 17.373577 0 0 0 18.91828 29.123738 525.303369 525.303369 0 0 1 83.847901-44.015376A431.232654 431.232654 0 0 1 509.61352 34.712788a433.072414 433.072414 0 0 1 399.592264 264.838569c28.290639 66.890874 43.58147 190.050614 50.176834 257.531599a17.338864 17.338864 0 1 0 34.538878-3.401819c-8.278917-84.802493-24.142503-200.099866-52.728198-267.667632zM188.332522 168.546604a17.35622 17.35622 0 1 0-24.368133-24.715258C70.622635 235.784603-22.354638 406.795443 64.738876 699.178333a17.321508 17.321508 0 1 0 33.254518-9.893045C32.959636 470.909322 64.183477 290.85589 188.332522 168.546604z" fill="#ffffff" p-id="4543"></path><path d="M522.943097 104.380657a360.193644 360.193644 0 0 0-153.65462 27.87409C199.093379 203.259045 108.598045 390.411171 158.809591 567.618182c5.015948 17.720701 10.153389 36.569557 12.913028 55.348987 6.213527 42.505384 6.543295 120.72987 6.543295 244.80949a17.35622 17.35622 0 1 0 34.712441 0c0-129.442692-0.329768-204.872827-6.907776-249.86015-3.054695-20.862177-8.521904-40.96068-13.86762-59.774823-45.421229-160.302052 36.448063-329.62934 190.449808-393.864712a330.844275 330.844275 0 0 1 139.058038-25.235945c123.420084 4.443192 263.311221 113.231982 305.504193 237.589303 36.517488 107.591211 36.8299 290.890255 32.299927 455.965268a17.35622 17.35622 0 0 0 16.887602 17.824839c9.407072-0.173562 17.564495-7.272256 17.824839-16.887603 4.599398-168.16442 4.13078-355.29919-34.139686-468.07991C812.930829 226.481668 661.688724 109.344536 522.943097 104.380657z" fill="#ffffff" p-id="4544"></path><path d="M380.70887 283.548921a17.35622 17.35622 0 1 0-19.942297-28.412133c-89.384536 62.760093-128.227757 183.333757-96.587367 300.175834 0.364481 1.267004 35.597608 129.512117 35.597608 329.837614a17.35622 17.35622 0 1 0 34.712441 0c0-205.029033-35.371977-333.794833-36.847256-339.053767-27.787309-102.644688 5.606059-208.153152 83.066871-262.547548zM509.61352 208.274993c-18.866212 0-37.645642 2.030678-55.852318 6.057321a17.35622 17.35622 0 1 0 7.480531 33.896699c15.742092-3.471244 32.022227-5.241579 48.35443-5.241579 90.825102 0 172.399338 54.047271 207.788672 137.72161 42.175616 99.624706 44.935255 259.527565 35.198415 538.546165a17.321508 17.321508 0 0 0 16.731397 17.946332l0.624824 0.017357a17.35622 17.35622 0 0 0 17.321508-16.748753c10.136033-290.248075 7.046626-447.061527-37.923342-553.298953A259.787908 259.787908 0 0 0 509.61352 208.274993zM681.613665 833.203068a17.35622 17.35622 0 0 0-17.234727-17.477714h-0.121494a17.35622 17.35622 0 0 0-17.35622 17.234727c-0.086781 13.051878 0.347124 32.109008 0.815742 52.693485 0.676893 29.93948 1.440566 63.870891 0.694249 85.687661a17.304152 17.304152 0 0 0 17.35622 17.946332 17.35622 17.35622 0 0 0 17.321509-16.766109c0.798386-22.788718 0.017356-57.258171-0.676893-87.66627a1992.494113 1992.494113 0 0 1-0.798386-51.652112z" fill="#ffffff" p-id="4545"></path><path d="M509.61352 329.768536a138.190228 138.190228 0 0 0-53.474516 10.726145c-67.55041 28.186502-100.371023 104.397666-76.36737 177.276436 13.08659 39.728389 24.142503 247.707979 24.142503 454.160222a17.35622 17.35622 0 1 0 34.712441 0c0-185.833053-9.893046-416.462511-25.860769-465.00786-18.293456-55.487837 6.126746-113.266695 56.754841-134.389215a104.033186 104.033186 0 0 1 136.055413 55.644043c32.404064 76.697138 42.036766 215.546902 44.397212 318.538714a17.35622 17.35622 0 0 0 17.35622 16.957028h0.399193c9.580634-0.225631 17.165302-8.17478 16.957028-17.755414-2.447227-105.977082-12.600616-249.49567-47.20892-331.382318A138.554708 138.554708 0 0 0 509.61352 329.768536z" fill="#ffffff" p-id="4546"></path></svg>