<svg xmlns="http://www.w3.org/2000/svg" xmlns:xlink="http://www.w3.org/1999/xlink" viewBox="0 0 171.84 29.25"><defs><style>.cls-1{fill:url(#未命名的渐变_10);}.cls-2{fill:url(#未命名的渐变_60);}.cls-3{fill:url(#未命名的渐变_60-2);}.cls-4{fill:url(#未命名的渐变_52);}.cls-5{fill:url(#未命名的渐变_51);}.cls-6{fill:url(#未命名的渐变_53);}.cls-7{fill:#4e5156;}</style><linearGradient id="未命名的渐变_10" x1="21.22" y1="12.84" x2="21.22" y2="29.25" gradientUnits="userSpaceOnUse"><stop offset="0" stop-color="#4dff6a"/><stop offset="1" stop-color="#239bff"/></linearGradient><linearGradient id="未命名的渐变_60" x1="18" y1="28.33" x2="18" y2="7.92" gradientUnits="userSpaceOnUse"><stop offset="0" stop-color="#00a2ff"/><stop offset="1" stop-color="#0064fa"/></linearGradient><linearGradient id="未命名的渐变_60-2" x1="22.52" y1="23.49" x2="29.71" y2="23.49" xlink:href="#未命名的渐变_60"/><linearGradient id="未命名的渐变_52" x1="25.48" y1="27.99" x2="38.25" y2="5.88" gradientUnits="userSpaceOnUse"><stop offset="0" stop-color="#0032fa"/><stop offset="1" stop-color="#007ffd"/></linearGradient><linearGradient id="未命名的渐变_51" x1="21.66" y1="19.74" x2="12.53" y2="3.92" gradientUnits="userSpaceOnUse"><stop offset="0" stop-color="#0032fa"/><stop offset="1" stop-color="#0095fd"/></linearGradient><linearGradient id="未命名的渐变_53" x1="15.06" y1="7.58" x2="4.07" y2="26.61" gradientUnits="userSpaceOnUse"><stop offset="0" stop-color="#0032fa"/><stop offset="0.69" stop-color="#155bfb"/><stop offset="1" stop-color="#167bfb"/></linearGradient></defs><title>资源 9</title><g id="图层_2" data-name="图层 2"><g id="图层_1-2" data-name="图层 1"><polygon class="cls-1" points="15.61 29.25 19.09 29.25 26.83 15.85 25.09 12.84 15.61 29.25"/><path class="cls-2" d="M12.49,25.76a1.74,1.74,0,0,1,1.74,1.75,1.64,1.64,0,0,1-.21.82L23.91,11.2,22.36,7.92,12.09,25.81A1.68,1.68,0,0,1,12.49,25.76Z"/><path class="cls-3" d="M26.47,25.8l3.05-5.29-1.61-2.79-5.23,9.06h0a1.68,1.68,0,0,0-.17.74,1.72,1.72,0,0,0,1.72,1.73h5.47V25.8Z"/><path class="cls-4" d="M37.85,10.41A14,14,0,0,0,25,0V3.46a10.56,10.56,0,0,1,9.88,10.28,6,6,0,0,1,1-.09,6.08,6.08,0,0,1,.81,12.1l-10.21,0a2.13,2.13,0,0,0-.43,1.29,2.17,2.17,0,0,0,2.17,2.17H35.9a9.52,9.52,0,0,0,2-18.84Z"/><path class="cls-5" d="M24.32,0A14,14,0,0,0,12.59,6.36c-.37,0-.74-.05-1.12-.05A11.47,11.47,0,0,0,0,17.78a11,11,0,0,0,1.5,5.38,8,8,0,0,1,2-4.55c0-.27,0-.55,0-.83a8,8,0,0,1,8-8,8.11,8.11,0,0,1,3,.56,10.55,10.55,0,0,1,19.79.06A10,10,0,0,1,36,10.21a9,9,0,0,1,1.88.19A14,14,0,0,0,24.32,0Z"/><path class="cls-6" d="M15.07,26.51l1.14-2a12.09,12.09,0,0,1-4.74,1.27,8,8,0,0,1-.49-16,13.55,13.55,0,0,1,1.71-3.55l-.1.14c-.37,0-.74-.05-1.12-.05A11.47,11.47,0,0,0,0,17.78c0,5.66,5.14,11.47,11.47,11.47h1A1.73,1.73,0,0,0,14,28.33h0Z"/><path class="cls-7" d="M65.52,5.81l-1,3h7.88c1.31-.06,1.93.56,1.87,1.88V23c.06,1.31-.56,1.93-1.87,1.87H56.9C55.65,24.9,55,24.28,55,23V10.69c0-1.32.63-1.94,1.88-1.88h5.62l.94-3H54.27c-.56,0-.87-.31-.93-.94s.37-.93.93-.93H74.9q.75,0,.75.93c0,.63-.25.94-.75.94ZM56.9,15.94H72.46V11.62a.83.83,0,0,0-.94-.93H57.84a.83.83,0,0,0-.94.93Zm14.62,7c.63,0,.94-.28.94-.85V17.81H56.9v4.31c0,.57.31.85.94.85Z"/><path class="cls-7" d="M95.34,6.65V8.9h3.09a.85.85,0,1,1,0,1.69H95.34v1.69c.18,1.44-.53,2.09-2.16,2H86.06q-2.44.29-2.25-2.16v-1.5H80.52v6.1a20.12,20.12,0,0,1-1.21,7.21,1,1,0,0,1-1.32.57.82.82,0,0,1-.47-1.22,14.08,14.08,0,0,0,1.22-6.66V7c-.06-1.44.63-2.13,2.07-2.06H88a8.94,8.94,0,0,0-.46-1.13A.93.93,0,0,1,88,2.62a.94.94,0,0,1,1.22.47c.38.88.63,1.5.75,1.88h8.35q.75,0,.75.84t-.75.84ZM83.24,17.53a.86.86,0,1,1,0-1.69H95.71c1.5.13,1.91.81,1.22,2.06a14.13,14.13,0,0,1-4.69,4.22,30,30,0,0,0,7,1.5.85.85,0,0,1,.85.94c-.19.62-.56.91-1.13.84a30.69,30.69,0,0,1-8.72-2.25,41.57,41.57,0,0,1-8.81,2.44c-.69.06-1.09-.19-1.22-.75s.22-.9.85-1a40.64,40.64,0,0,0,7-1.59,25.72,25.72,0,0,1-4.22-2.53.86.86,0,0,1-.09-1.32,1,1,0,0,1,1.31-.09,33.74,33.74,0,0,0,5,2.91c2.43-1.25,4-2.47,4.59-3.66ZM80.52,8.9h3.29V6.65H81.27a.66.66,0,0,0-.75.75Zm5,1.69V12c-.06.5.19.72.75.65H93c.57.07.78-.18.66-.75V10.59Zm0-3.94V8.9h8.16V6.65Z"/><path class="cls-7" d="M111.37,12.09a52.58,52.58,0,0,1-6.66,10.22,124.88,124.88,0,0,0,14.81-.56,31.86,31.86,0,0,0-3-4.6c-.37-.62-.34-1.12.1-1.5s1-.18,1.5.38a51.78,51.78,0,0,1,4.5,7.5c.37.75.28,1.31-.28,1.69-.63.18-1.13-.1-1.5-.85a3.27,3.27,0,0,0-.47-1.12c-2.5.25-5.06.4-7.69.47s-5.69.15-9.19.09c-.75.06-1.22-.09-1.4-.47s0-.78.47-1.22a48.49,48.49,0,0,0,6.75-10h-7c-.56,0-.87-.31-.93-.94a.84.84,0,0,1,.93-.84h19.88a.89.89,0,0,1,1,.84.93.93,0,0,1-1,.94Zm-7.31-6.75a1,1,0,0,1-1-.84,1,1,0,0,1,.94-.94h16.69a.89.89,0,0,1,1,.84.93.93,0,0,1-1,.94Z"/><path class="cls-7" d="M131.06,6.28h3.56q1.5,0,1.5,1.59v6.38c0,1.19,0,2.25-.1,3.19-.06,1.87-.18,3.53-.37,5q-.47,3.48-5.16,2.25a1.15,1.15,0,0,1-.84-1.21,1,1,0,0,1,1.12-.75c1.82.56,2.85.34,3.1-.66a92.59,92.59,0,0,0,.47-12V8.72q0-.75-.66-.75h-2.62q-.48,11.81-4.13,16.5a1,1,0,0,1-1.31.47c-.63-.38-.81-.82-.56-1.32q3.93-5.25,4-15.65h-3c-.5,0-.79-.28-.85-.85s.35-.84.85-.84h3V3.56c.06-.5.4-.78,1-.84a1.06,1.06,0,0,1,.94.93ZM145.49,4.5A1.33,1.33,0,0,1,147,6V23.15a1.4,1.4,0,0,1-1.68,1.6h-5.44A1.63,1.63,0,0,1,138.09,23V6a1.48,1.48,0,0,1,1.59-1.5Zm-5.62,18c0,.31.19.47.56.47h4.22c.37,0,.56-.16.56-.47V6.94a.7.7,0,0,0-.56-.66h-4.22a.5.5,0,0,0-.56.56Z"/><path class="cls-7" d="M170.71,22.69a1,1,0,0,1,1.13.93c0,.57-.35.88-1,.94h-7a27.29,27.29,0,0,1-6.09-.47,10.4,10.4,0,0,1-3.94-2.15,11.1,11.1,0,0,1-3.18,2.25,1,1,0,0,1-1.32-.38c-.25-.62-.12-1,.38-1.22a5.85,5.85,0,0,0,2.25-1.5,3.06,3.06,0,0,0,.65-2.06V13.59c.07-.56-.25-.81-.93-.75h-1.5a.92.92,0,0,1-.85-.94c.06-.62.35-.93.85-.93h2.72c1,0,1.5.59,1.5,1.78v5.81a4.39,4.39,0,0,0,2.53,3.28c1.25.56,3.43.85,6.56.85ZM155.06,7.31a1,1,0,0,1,0,1.41.87.87,0,0,1-1.32-.1,21.31,21.31,0,0,0-3.09-3.18.87.87,0,0,1-.09-1.32,1,1,0,0,1,1.4,0A16.71,16.71,0,0,1,155.06,7.31Zm9.09-2.25h6.56a.66.66,0,0,1,.75.75q0,.84-.75.84h-6.56V8.34h4.69a1.41,1.41,0,0,1,1.59,1.6v2.81q.09,1.68-1.59,1.59h-4.69v1a.65.65,0,0,1,.66,0A45.47,45.47,0,0,1,171,19a1.1,1.1,0,0,1,.38,1.41.89.89,0,0,1-1.31.18,36,36,0,0,0-5.91-3.56v4a.85.85,0,1,1-1.69,0V16.31a22.69,22.69,0,0,1-5.15,4.22,1,1,0,0,1-1.5-.19c-.25-.5-.1-1,.46-1.4a28.39,28.39,0,0,0,5.63-4.6H158c-1.19.06-1.75-.47-1.69-1.59V9.94c0-1.07.57-1.6,1.69-1.6h4.5V6.65h-5.9c-.51,0-.75-.28-.75-.84a.66.66,0,0,1,.75-.75h5.9V3.84a.76.76,0,0,1,.85-.75c.56.06.84.35.84.85ZM158,11.72a.75.75,0,0,0,.85.84h3.65V10h-3.75a.66.66,0,0,0-.75.75ZM164.15,10v2.53h3.94c.43,0,.65-.25.65-.75v-.94c.06-.56-.18-.84-.75-.84Z"/></g></g></svg>