<?xml version="1.0" standalone="no"?><!DOCTYPE svg PUBLIC "-//W3C//DTD SVG 1.1//EN" "http://www.w3.org/Graphics/SVG/1.1/DTD/svg11.dtd"><svg t="1581511842412" class="icon" viewBox="0 0 1024 1024" version="1.1" xmlns="http://www.w3.org/2000/svg" p-id="5779" id="mx_n_1581511842412" xmlns:xlink="http://www.w3.org/1999/xlink" width="200" height="200"><defs><style type="text/css"></style></defs><path d="M785.869 206H596v605h93.5c41.145 0 74.5 33.355 74.5 74.5V952a8 8 0 0 1-8 8H270a8 8 0 0 1-8-8v-66.5c0-41.145 33.355-74.5 74.5-74.5H429V206H244.965C310.322 340.61 343 429.443 343 472.5c0 77.044-62.456 139.5-139.5 139.5S64 549.544 64 472.5c0-43.057 32.678-131.89 98.035-266.5H135c-39.212 0-71-31.788-71-71s31.788-71 71-71h754c39.212 0 71 31.788 71 71s-31.788 71-71 71h-33.869C925.044 348.467 960 441.967 960 486.5c0 77.044-62.456 139.5-139.5 139.5S681 563.544 681 486.5c0-44.533 34.956-138.033 104.869-280.5zM540 150h-55v717H336.5c-10.217 0-18.5 8.283-18.5 18.5V896a8 8 0 0 0 8 8h374a8 8 0 0 0 8-8v-10.5c0-10.217-8.283-18.5-18.5-18.5H540V150z m-405 0h754c8.284 0 15-6.716 15-15 0-8.284-6.716-15-15-15H135c-8.284 0-15 6.716-15 15 0 8.284 6.716 15 15 15z m-10.707 349c11.078 33.126 42.354 57 79.207 57 36.853 0 68.13-23.874 79.207-57H124.293z m0.192-56h158.03c-9.911-41.574-36.25-112.907-79.015-214-42.766 101.093-69.104 172.426-79.015 214z m613.444 56c6.033 40.186 40.703 71 82.571 71 41.868 0 76.538-30.814 82.57-71H737.93z m7.199-56h150.744C883.923 400.201 858.8 333.534 820.5 243c-38.3 90.534-63.423 157.201-75.372 200z" p-id="5780"></path></svg>